<svg width="18" height="12" viewBox="0 0 18 12" fill="none" xmlns="http://www.w3.org/2000/svg">
<path fill-rule="evenodd" clip-rule="evenodd" d="M0.25 5.99981C0.25 5.83405 0.315848 5.67508 0.433058 5.55787C0.550268 5.44066 0.70924 5.37481 0.875 5.37481H15.6163L11.6825 1.44231C11.5651 1.32495 11.4992 1.16578 11.4992 0.999813C11.4992 0.833843 11.5651 0.674671 11.6825 0.557313C11.7999 0.439954 11.959 0.374023 12.125 0.374023C12.291 0.374023 12.4501 0.439955 12.5675 0.557313L17.5675 5.55731C17.6257 5.61537 17.6719 5.68434 17.7034 5.76027C17.7349 5.8362 17.7511 5.9176 17.7511 5.99981C17.7511 6.08202 17.7349 6.16342 17.7034 6.23935C17.6719 6.31529 17.6257 6.38426 17.5675 6.44231L12.5675 11.4423C12.4501 11.5597 12.291 11.6256 12.125 11.6256C11.959 11.6256 11.7999 11.5597 11.6825 11.4423C11.5651 11.325 11.4992 11.1658 11.4992 10.9998C11.4992 10.8338 11.5651 10.6747 11.6825 10.5573L15.6163 6.62481H0.875C0.70924 6.62481 0.550268 6.55897 0.433058 6.44175C0.315848 6.32454 0.25 6.16557 0.25 5.99981Z" fill="black"/>
</svg>
