<svg width="13" height="23" viewBox="0 0 13 23" fill="none" xmlns="http://www.w3.org/2000/svg">
<path d="M12.7492 15.56C12.7492 16.792 12.2772 17.84 11.3332 18.704C10.3892 19.552 9.00519 20.024 7.18119 20.12V22.88H5.98119V20.144C4.81319 20.08 3.70919 19.856 2.66919 19.472C1.64519 19.072 0.837188 18.568 0.245188 17.96L0.941188 16.592C1.50119 17.136 2.22919 17.592 3.12519 17.96C4.03719 18.328 4.98919 18.544 5.98119 18.608V12.296C4.87719 12.024 3.95719 11.736 3.22119 11.432C2.48519 11.112 1.86919 10.656 1.37319 10.064C0.893188 9.456 0.653188 8.656 0.653188 7.664C0.653188 6.432 1.10119 5.4 1.99719 4.568C2.89319 3.72 4.22119 3.224 5.98119 3.08V0.319999H7.18119V3.056C8.09319 3.088 8.97319 3.24 9.82119 3.512C10.6852 3.768 11.4292 4.112 12.0532 4.544L11.4532 5.96C10.7972 5.544 10.1012 5.216 9.36519 4.976C8.62919 4.736 7.90119 4.6 7.18119 4.568V10.928C8.36519 11.216 9.33319 11.512 10.0852 11.816C10.8372 12.104 11.4692 12.552 11.9812 13.16C12.4932 13.768 12.7492 14.568 12.7492 15.56ZM2.40519 7.616C2.40519 8.448 2.70919 9.08 3.31719 9.512C3.94119 9.944 4.82919 10.312 5.98119 10.616V4.616C4.79719 4.712 3.90119 5.04 3.29319 5.6C2.70119 6.144 2.40519 6.816 2.40519 7.616ZM7.18119 18.608C8.44519 18.512 9.39719 18.2 10.0372 17.672C10.6772 17.144 10.9972 16.472 10.9972 15.656C10.9972 14.792 10.6692 14.144 10.0132 13.712C9.35719 13.28 8.41319 12.912 7.18119 12.608V18.608Z" fill="black"/>
</svg>
