<svg width="1440" height="1024" viewBox="0 0 1440 1024" fill="none" xmlns="http://www.w3.org/2000/svg">
<g clip-path="url(#clip0_97_15)">
<rect width="1440" height="1024" fill="white"/>
<rect x="780" width="660" height="1024" fill="#FB8500"/>
<g clip-path="url(#clip1_97_15)">
<path d="M1150.7 937.845C1139.26 925.533 1122.68 918.472 1105.21 918.472L1104.54 918.474C1093.03 918.478 1081.73 915.294 1071.8 909.247L1070.76 908.618L1071.59 907.722C1076.1 902.854 1079.87 897.291 1082.76 891.229C1080.71 893.225 1078.26 894.726 1075.59 895.626C1072.92 896.526 1070.09 896.803 1067.31 896.437C1064.37 896.071 1061.55 895.016 1059.06 893.35C1056.56 891.684 1054.46 889.451 1052.92 886.819C1046.81 876.483 1039.54 861.817 1039.54 850.645C1039.54 841.201 1041.44 831.863 1045.1 823.226C1048.76 814.589 1054.1 806.842 1060.79 800.48C1065.03 796.496 1068.41 791.626 1070.72 786.187C1073.03 780.749 1074.21 774.863 1074.19 768.914L1074.19 768.068C1074.19 760.236 1075.11 752.433 1076.92 744.834L1077.11 744.067L1077.86 744.094C1082.74 744.268 1087.62 743.841 1092.41 742.823C1087.92 742.248 1083.53 741.03 1079.36 739.203L1078.55 738.859L1078.83 737.989C1097.87 725.685 1140.86 732.057 1165.81 672.491C1186.04 624.192 1257.42 715.367 1257.42 768.068C1257.42 773.445 1252.32 780.552 1256.14 784.106C1297.41 822.528 1268.94 847.2 1259.96 872.026C1257.83 877.916 1262.45 884.383 1262.45 890.755C1262.45 891.837 1262.42 892.953 1262.37 894.073L1262.29 895.795L1260.91 894.839C1258.19 892.978 1255.67 890.818 1253.38 888.397C1255.75 894.08 1256.87 900.245 1256.65 906.438C1256.43 912.631 1254.88 918.694 1252.12 924.181C1247.8 932.699 1243.61 938.798 1239.69 942.306C1227.1 953.54 1210.89 959.335 1194.35 958.506C1177.81 957.676 1162.19 950.286 1150.7 937.845H1150.7Z" fill="#E6E6E6"/>
<path d="M1219.8 1066C1220.09 1066 1220.36 1065.89 1220.57 1065.7C1220.78 1065.51 1220.92 1065.24 1220.96 1064.95C1221.01 1064.59 1225.87 1027.98 1221.51 979.321C1217.47 934.386 1204.51 869.663 1165.7 816.508C1165.6 816.38 1165.49 816.273 1165.35 816.192C1165.22 816.111 1165.07 816.058 1164.92 816.037C1164.77 816.015 1164.61 816.025 1164.47 816.066C1164.32 816.107 1164.18 816.178 1164.06 816.275C1163.93 816.373 1163.83 816.494 1163.75 816.633C1163.68 816.771 1163.63 816.924 1163.61 817.083C1163.59 817.242 1163.6 817.404 1163.63 817.559C1163.67 817.714 1163.74 817.859 1163.84 817.986C1202.32 870.683 1215.17 934.931 1219.18 979.549C1223.52 1027.92 1218.69 1064.25 1218.65 1064.61C1218.62 1064.78 1218.63 1064.96 1218.68 1065.13C1218.73 1065.29 1218.81 1065.45 1218.92 1065.58C1219.03 1065.71 1219.17 1065.82 1219.32 1065.89C1219.47 1065.96 1219.64 1066 1219.8 1066V1066Z" fill="#3F3D56"/>
<path d="M1188.13 891.486C1188.37 891.486 1188.62 891.405 1188.81 891.254C1189.01 891.102 1189.16 890.889 1189.24 890.644C1189.32 890.399 1189.32 890.135 1189.24 889.89C1189.16 889.645 1189.02 889.431 1188.82 889.28C1177.75 881.468 1165.81 875.121 1153.24 870.386C1133.62 862.889 1103.78 856.092 1073.05 866.295C1072.91 866.343 1072.77 866.421 1072.65 866.524C1072.54 866.628 1072.44 866.754 1072.37 866.896C1072.3 867.039 1072.25 867.194 1072.24 867.354C1072.23 867.514 1072.25 867.675 1072.29 867.828C1072.34 867.981 1072.41 868.123 1072.51 868.245C1072.61 868.368 1072.73 868.469 1072.87 868.542C1073.01 868.616 1073.16 868.66 1073.31 868.674C1073.46 868.687 1073.62 868.668 1073.76 868.619C1103.86 858.626 1133.16 865.31 1152.44 872.677C1164.8 877.331 1176.56 883.571 1187.44 891.253C1187.64 891.405 1187.88 891.486 1188.13 891.486Z" fill="#3F3D56"/>
<path d="M1241.63 752.436C1241.65 752.179 1241.59 751.923 1241.46 751.704C1241.33 751.485 1241.14 751.315 1240.91 751.218C1240.68 751.12 1240.43 751.101 1240.19 751.163C1239.95 751.225 1239.73 751.364 1239.57 751.561C1231.31 762.509 1224.38 774.488 1218.95 787.22C1210.37 807.104 1201.73 837.673 1209.27 870.381C1209.3 870.537 1209.37 870.684 1209.46 870.814C1209.55 870.944 1209.66 871.053 1209.79 871.137C1209.92 871.221 1210.07 871.277 1210.22 871.302C1210.37 871.327 1210.53 871.321 1210.68 871.283C1210.83 871.246 1210.97 871.178 1211.09 871.084C1211.21 870.989 1211.32 870.87 1211.4 870.734C1211.48 870.597 1211.53 870.445 1211.56 870.287C1211.58 870.128 1211.58 869.967 1211.54 869.811C1204.15 837.772 1212.65 807.759 1221.08 788.221C1226.42 775.693 1233.23 763.907 1241.36 753.134C1241.52 752.937 1241.62 752.693 1241.63 752.436Z" fill="#3F3D56"/>
<path d="M1467.13 1064.71H1374.06L1373.66 1063.95C1372.47 1061.7 1371.32 1059.31 1370.25 1056.86C1360.66 1035.45 1356.61 1010.96 1353.04 989.348L1350.34 973.06C1350.02 971.087 1350.26 969.058 1351.05 967.232C1351.83 965.406 1353.12 963.866 1354.75 962.809C1356.38 961.753 1358.28 961.228 1360.19 961.301C1362.11 961.374 1363.96 962.043 1365.52 963.221C1379.66 973.96 1393.81 984.688 1407.96 995.405C1413.32 999.475 1419.44 1004.18 1425.3 1009.27C1425.87 1006.41 1426.46 1003.53 1427.05 1000.7C1427.46 998.74 1428.42 996.955 1429.8 995.569C1431.19 994.184 1432.94 993.261 1434.83 992.92C1436.72 992.579 1438.67 992.834 1440.42 993.654C1442.17 994.473 1443.65 995.819 1444.66 997.52L1455.55 1015.77C1463.5 1029.1 1470.5 1042.24 1469.08 1056.41C1469.08 1056.58 1469.07 1056.75 1469.04 1056.92C1468.75 1059.25 1468.22 1061.54 1467.46 1063.74L1467.13 1064.71Z" fill="#F0F0F0"/>
<path d="M1423.77 682.945L1405.81 613.58C1405.04 610.644 1403.19 608.141 1400.67 606.611C1398.15 605.081 1395.15 604.648 1392.32 605.404C1390.86 605.795 1389.49 606.493 1388.3 607.455C1387.1 608.417 1386.11 609.622 1385.37 610.998C1384.64 612.375 1384.18 613.892 1384.03 615.459C1383.87 617.025 1384.03 618.608 1384.48 620.111L1405.25 691.568L1416.12 735.543C1414.54 736.804 1413.37 738.543 1412.76 740.524C1412.16 742.504 1412.16 744.631 1412.75 746.614C1413.35 748.597 1414.52 750.34 1416.09 751.608C1417.67 752.875 1419.59 753.604 1421.58 753.697C1423.57 753.79 1425.54 753.241 1427.22 752.126C1428.9 751.01 1430.21 749.382 1430.97 747.462C1431.73 745.542 1431.91 743.424 1431.48 741.395C1431.05 739.366 1430.03 737.525 1428.56 736.122L1423.77 682.945Z" fill="#A0616A"/>
<path d="M1272.63 668.006L1327.2 624.184C1329.51 622.32 1331.02 619.585 1331.41 616.568C1331.8 613.551 1331.04 610.495 1329.29 608.059C1328.39 606.799 1327.25 605.744 1325.94 604.959C1324.63 604.174 1323.18 603.676 1321.68 603.494C1320.18 603.312 1318.66 603.451 1317.22 603.901C1315.77 604.352 1314.43 605.105 1313.27 606.115L1257.92 653.449L1223.13 680.731C1221.41 679.687 1219.42 679.221 1217.43 679.396C1215.45 679.572 1213.56 680.381 1212.03 681.713C1210.51 683.045 1209.41 684.836 1208.89 686.842C1208.37 688.848 1208.45 690.973 1209.13 692.927C1209.81 694.881 1211.05 696.57 1212.68 697.764C1214.31 698.958 1216.25 699.599 1218.24 699.601C1220.24 699.603 1222.18 698.965 1223.81 697.774C1225.44 696.583 1226.68 694.897 1227.37 692.944L1272.63 668.006Z" fill="#A0616A"/>
<path d="M1317.11 678.08L1314.7 734.137L1390.23 717.008C1383.8 694.484 1379.43 690.642 1384.26 674.966L1317.11 678.08Z" fill="#A0616A"/>
<path d="M1363.55 575.313H1338.38L1327.58 594.61L1322.43 594.314C1319.91 594.169 1317.39 594.561 1315.02 595.467C1312.65 596.373 1310.48 597.773 1308.65 599.582C1306.82 601.391 1305.36 603.571 1304.36 605.989C1303.36 608.407 1302.85 611.011 1302.85 613.643L1309.2 623.905C1309.2 623.905 1297.85 644.541 1314.19 654.693C1314.19 654.693 1311.28 673.82 1314.19 673.614C1317.11 673.409 1323.83 669.516 1317.11 673.409C1310.39 677.302 1310.9 677.824 1311.76 678.731L1312.63 679.637L1383.25 692.009C1383.25 692.009 1385.31 677.726 1385.53 675.178C1385.76 672.63 1384.26 678.859 1385.76 672.63C1387.25 666.402 1389.49 668.737 1387.25 666.402C1385.01 664.066 1401.75 635.129 1394.87 623.905L1405.9 612.681C1405.9 601.914 1389.33 593.186 1379.01 593.186H1377.69L1363.55 575.313Z" fill="#E6E6E6"/>
<path d="M1302.91 1043.1H1292.73L1287.88 1002.1L1302.92 1002.1L1302.91 1043.1Z" fill="#A0616A"/>
<path d="M1454.3 1015.26L1445.73 1021.01L1420.4 989.266L1433.04 980.781L1454.3 1015.26Z" fill="#A0616A"/>
<path d="M1436.57 1045.8C1437.2 1046.8 1438.17 1047.5 1439.28 1047.76C1440.4 1048.01 1441.56 1047.8 1442.53 1047.16L1458.65 1036.33L1458.49 1034.92L1457.74 1028.47L1461.65 1032.79L1462.51 1033.74L1468.6 1029.66L1467.84 1028.63L1453.7 1009.42L1451.5 1010.71L1441.98 1016.3L1439.64 1017.67L1443.38 1023.73C1442.84 1026.77 1433.85 1042.94 1436.57 1045.8Z" fill="#2F2E41"/>
<path d="M1389.05 710.676C1389.05 710.676 1340.77 737.323 1315.23 719.143C1315.23 719.143 1309.65 747.372 1307.41 749.708C1305.17 752.043 1301.6 753.061 1304.13 755.667C1306.66 758.272 1308.07 761.791 1303.26 766.26C1298.46 770.729 1293.66 769.311 1298.3 773.913C1302.93 778.515 1284.28 891.406 1284.28 891.406C1284.28 891.406 1287.26 996.391 1284.28 999.566C1281.29 1002.74 1277.3 1003.45 1281.16 1007.38C1285.02 1011.31 1285.03 1008.26 1285.03 1013.68V1019.09L1286.79 1024.47H1311.02C1311.02 1024.47 1316.86 1017.39 1311.02 1011.23C1305.17 1005.08 1312.8 1003.39 1314.58 997.617C1316.36 991.841 1319.35 998.07 1316.36 991.841C1313.38 985.613 1311.95 986.798 1311.92 982.702C1311.89 978.605 1355.91 818.221 1355.91 818.221L1361.24 906.992L1425.38 1004.21L1444.26 989.437C1444.26 989.437 1430.51 969.248 1433.73 966.472C1436.94 963.697 1424.25 960.216 1428.25 957.085C1432.25 953.954 1422.62 950.799 1426.25 946.649C1429.88 942.499 1421.25 932.039 1416.25 932.039C1411.25 932.039 1404.23 914.601 1404.23 914.601L1414.71 776.853L1389.05 710.676Z" fill="#2F2E41"/>
<path d="M1337.88 518.651C1337.54 519.119 1334.81 518.867 1331.54 518.368C1325.07 517.382 1324.19 518.554 1319.35 523.146C1312.34 529.798 1316.32 570.372 1312.88 579.163L1311.77 580.019C1313.97 579.579 1316.14 578.946 1318.25 578.127C1319.44 574.212 1320.63 570.284 1321.83 566.372C1322.96 569.416 1323.67 572.612 1323.95 575.865C1325.61 575.18 1327.27 573.504 1334.23 571.256C1337.73 568.775 1363.1 566.28 1366.36 565.188C1374.63 535.812 1361.3 523.932 1337.88 518.651Z" fill="#2F2E41"/>
<path d="M1346.44 563.95C1359.83 563.95 1370.68 552.628 1370.68 538.662C1370.68 524.696 1359.83 513.374 1346.44 513.374C1333.06 513.374 1322.21 524.696 1322.21 538.662C1322.21 552.628 1333.06 563.95 1346.44 563.95Z" fill="#A0616A"/>
<path d="M1361.7 516.422C1360.33 516.212 1359.02 515.731 1357.83 515.005C1357.23 514.633 1356.76 514.094 1356.44 513.451C1356.13 512.808 1356 512.087 1356.06 511.369C1356.36 509.572 1358.31 508.499 1360.05 508.609C1361.79 508.87 1363.44 509.567 1364.86 510.639C1364.71 508.903 1363.99 507.272 1362.84 506.008C1361.69 504.744 1360.17 503.92 1358.51 503.669C1360.81 503.54 1363.19 503.426 1365.31 504.347C1367.43 505.268 1369.2 507.548 1368.82 509.912C1372.39 509.433 1375.9 512.026 1377.38 515.45C1378.85 518.873 1378.56 522.894 1377.38 526.44C1377.27 526.983 1377.04 527.494 1376.72 527.937C1376.4 528.381 1375.99 528.747 1375.52 529.012C1374.32 529.487 1373.02 528.69 1371.98 527.904C1366.55 523.799 1361.61 519.034 1357.25 513.708" fill="#2F2E41"/>
<path d="M1372.27 565.547C1371.24 566.051 1371.77 567.929 1370.97 568.77C1370.63 569.126 1370.21 569.397 1369.75 569.564C1369.63 567.997 1369.28 566.458 1368.71 565.002C1368.61 564.737 1368.44 564.441 1368.17 564.464C1367.86 564.503 1367.77 564.932 1367.77 565.251C1367.7 566.834 1367.37 568.393 1366.77 569.852C1366.77 569.868 1366.76 569.891 1366.75 569.907C1366.52 569.899 1366.28 569.891 1366.06 569.883C1364.33 569.813 1360.49 565.173 1359.64 566.746C1362.64 561.195 1366.3 552.848 1366.86 546.503C1367.05 545.175 1366.96 543.818 1366.58 542.532C1366.38 541.893 1366.02 541.326 1365.52 540.898C1365.02 540.47 1364.42 540.2 1363.78 540.119C1363.47 540.104 1363.15 540.162 1362.86 540.288C1362.57 540.415 1362.31 540.607 1362.1 540.851C1361.89 541.095 1361.73 541.385 1361.64 541.7C1361.54 542.015 1361.52 542.347 1361.57 542.672L1361.13 542.61C1357.12 539.2 1360.58 533.275 1355.91 530.932C1354.33 530.138 1344.64 532.792 1342.93 532.325C1342.9 530.447 1342.53 528.592 1341.85 526.852C1341.75 526.587 1341.58 526.291 1341.31 526.315C1340.99 526.354 1340.91 526.782 1340.9 527.101C1340.84 528.685 1340.51 530.243 1339.91 531.703C1337.55 531.352 1335.14 531.484 1332.82 532.092C1330.77 532.652 1328.83 533.618 1326.78 534.132C1325.77 534.456 1324.7 534.561 1323.64 534.441C1322.59 534.32 1321.57 533.977 1320.65 533.431C1318.04 531.609 1317.59 527.576 1318.89 524.602C1319.83 522.694 1321.1 520.983 1322.63 519.557C1323.8 518.373 1325.02 517.237 1326.24 516.1C1327.32 515.08 1328.41 514.06 1329.5 513.04C1330.87 511.693 1332.34 510.45 1333.88 509.319C1336.33 507.637 1339.1 506.498 1341.99 505.97C1344.89 505.443 1347.86 505.538 1350.72 506.251C1354.15 507.108 1358.74 505.901 1361.88 507.575C1363.52 508.455 1367.15 511.826 1368.59 513.025C1372.28 516.085 1369.79 513.591 1373.82 515.36C1383.43 519.579 1379.18 562.15 1372.27 565.547Z" fill="#2F2E41"/>
<path d="M1103.93 750.12C1186.93 750.12 1254.22 679.907 1254.22 593.294C1254.22 506.682 1186.93 436.469 1103.93 436.469C1020.92 436.469 953.628 506.682 953.628 593.294C953.628 679.907 1020.92 750.12 1103.93 750.12Z" fill="white"/>
<path d="M1103.93 751.685C1020.22 751.685 952.128 680.631 952.128 593.294C952.128 505.957 1020.22 434.903 1103.93 434.903C1187.63 434.903 1255.72 505.957 1255.72 593.294C1255.72 680.631 1187.63 751.685 1103.93 751.685ZM1103.93 438.034C1021.88 438.034 955.129 507.684 955.129 593.294C955.129 678.905 1021.88 748.554 1103.93 748.554C1185.97 748.554 1252.72 678.905 1252.72 593.294C1252.72 507.684 1185.97 438.034 1103.93 438.034Z" fill="#219EBC"/>
<path d="M1083.42 674.915C1080.83 674.915 1078.27 674.284 1075.95 673.073C1073.62 671.861 1071.61 670.103 1070.05 667.936L1029.05 610.889C1027.73 609.056 1026.77 606.971 1026.23 604.751C1025.68 602.532 1025.56 600.223 1025.87 597.955C1026.18 595.687 1026.92 593.506 1028.04 591.534C1029.15 589.563 1030.63 587.841 1032.39 586.467C1034.15 585.092 1036.14 584.093 1038.27 583.524C1040.4 582.956 1042.61 582.83 1044.79 583.154C1046.96 583.478 1049.05 584.245 1050.94 585.413C1052.83 586.58 1054.48 588.124 1055.8 589.957L1082.62 627.275L1151.52 519.44C1153.98 515.593 1157.8 512.924 1162.15 512.018C1166.5 511.112 1171.01 512.045 1174.7 514.61C1178.39 517.176 1180.95 521.164 1181.82 525.699C1182.69 530.233 1181.8 534.943 1179.34 538.793L1097.33 667.146C1095.85 669.468 1093.86 671.384 1091.52 672.735C1089.18 674.085 1086.56 674.831 1083.89 674.909C1083.73 674.912 1083.58 674.915 1083.42 674.915Z" fill="#219EBC"/>
<path d="M1258.78 446.267C1259.19 443.269 1256.19 440.33 1252.05 439.703C1247.92 439.076 1244.24 440.998 1243.82 443.996C1243.4 446.995 1246.41 449.934 1250.54 450.561C1254.67 451.188 1258.36 449.266 1258.78 446.267Z" fill="#E6E6E6"/>
<path d="M1307.96 441.26C1308.37 438.262 1305.36 435.323 1301.23 434.696C1297.1 434.069 1293.42 435.991 1293 438.989C1292.58 441.988 1295.59 444.927 1299.72 445.554C1303.85 446.181 1307.54 444.259 1307.96 441.26Z" fill="#3F3D56"/>
<path d="M1245.31 404.724C1245.73 401.725 1242.72 398.786 1238.59 398.159C1234.46 397.532 1230.77 399.454 1230.35 402.453C1229.93 405.451 1232.94 408.39 1237.07 409.017C1241.2 409.644 1244.89 407.722 1245.31 404.724Z" fill="#FF6584"/>
<path d="M1223.94 387.706C1223.96 384.954 1222.49 382.711 1220.65 382.696C1218.82 382.682 1217.31 384.901 1217.29 387.654C1217.27 390.406 1218.75 392.649 1220.58 392.664C1222.42 392.678 1223.92 390.459 1223.94 387.706Z" fill="#E6E6E6"/>
<path d="M1216.69 356.01C1216.71 353.258 1215.24 351.014 1213.41 351C1211.57 350.986 1210.07 353.205 1210.05 355.958C1210.03 358.71 1211.5 360.953 1213.33 360.968C1215.17 360.982 1216.67 358.763 1216.69 356.01Z" fill="#3F3D56"/>
<path d="M1273.05 411.793C1273.07 409.041 1271.6 406.797 1269.76 406.783C1267.93 406.768 1266.42 408.988 1266.4 411.741C1266.38 414.493 1267.85 416.736 1269.69 416.751C1271.52 416.765 1273.03 414.546 1273.05 411.793Z" fill="#E6E6E6"/>
<path d="M1249.28 424.175C1249.3 421.422 1247.83 419.179 1246 419.164C1244.16 419.15 1242.66 421.37 1242.64 424.122C1242.62 426.875 1244.09 429.118 1245.92 429.132C1247.76 429.147 1249.26 426.927 1249.28 424.175Z" fill="#FF6584"/>
<path d="M1282.36 447.058C1282.38 444.306 1280.91 442.063 1279.08 442.048C1277.24 442.034 1275.74 444.253 1275.72 447.006C1275.7 449.758 1277.17 452.001 1279.01 452.016C1280.84 452.03 1282.34 449.811 1282.36 447.058Z" fill="#3F3D56"/>
<path d="M976.73 817.792C977.148 814.793 974.138 811.854 970.007 811.227C965.877 810.6 962.189 812.523 961.771 815.521C961.353 818.519 964.363 821.458 968.493 822.085C972.624 822.712 976.311 820.79 976.73 817.792Z" fill="#E6E6E6"/>
<path d="M1025.91 812.784C1026.33 809.786 1023.32 806.847 1019.19 806.22C1015.06 805.593 1011.37 807.515 1010.95 810.513C1010.53 813.512 1013.54 816.451 1017.67 817.078C1021.8 817.705 1025.49 815.783 1025.91 812.784Z" fill="#3F3D56"/>
<path d="M963.263 776.248C963.681 773.249 960.671 770.31 956.541 769.683C952.41 769.056 948.722 770.978 948.304 773.977C947.886 776.975 950.896 779.914 955.027 780.541C959.157 781.168 962.845 779.246 963.263 776.248Z" fill="#FF6584"/>
<path d="M941.893 759.231C941.913 756.478 940.441 754.235 938.606 754.22C936.771 754.206 935.267 756.426 935.247 759.178C935.227 761.931 936.699 764.174 938.534 764.188C940.369 764.203 941.873 761.983 941.893 759.231Z" fill="#E6E6E6"/>
<path d="M934.646 727.535C934.666 724.782 933.194 722.539 931.359 722.524C929.524 722.51 928.02 724.73 928 727.482C927.981 730.235 929.452 732.478 931.287 732.492C933.122 732.507 934.626 730.287 934.646 727.535Z" fill="#3F3D56"/>
<path d="M991 783.317C991.02 780.565 989.549 778.322 987.714 778.307C985.879 778.293 984.375 780.512 984.355 783.265C984.335 786.017 985.806 788.261 987.642 788.275C989.477 788.289 990.981 786.07 991 783.317Z" fill="#E6E6E6"/>
<path d="M967.234 795.699C967.254 792.946 965.783 790.703 963.948 790.688C962.113 790.674 960.609 792.894 960.589 795.646C960.569 798.399 962.04 800.642 963.876 800.656C965.711 800.671 967.214 798.451 967.234 795.699Z" fill="#FF6584"/>
<path d="M1000.32 818.583C1000.34 815.83 998.866 813.587 997.031 813.572C995.196 813.558 993.692 815.778 993.672 818.53C993.652 821.283 995.123 823.526 996.958 823.54C998.794 823.555 1000.3 821.335 1000.32 818.583Z" fill="#3F3D56"/>
</g>
</g>
<defs>
<clipPath id="clip0_97_15">
<rect width="1440" height="1024" fill="white"/>
</clipPath>
<clipPath id="clip1_97_15">
<rect width="575" height="715" fill="white" transform="translate(928 351)"/>
</clipPath>
</defs>
</svg>
