<svg width="653" height="709" viewBox="0 0 653 709" fill="none" xmlns="http://www.w3.org/2000/svg">
<path d="M194.271 266.585L10.3269 233.692L10.3267 233.692L7.93642 233.265L7.93564 233.265C6.79472 233.06 5.60706 233.126 4.5118 233.454C3.41639 233.783 2.46694 234.358 1.76631 235.102C1.06659 235.845 0.644324 236.725 0.531912 237.638C0.419609 238.551 0.618866 239.476 1.11675 240.31L1.11724 240.311L74.1499 363.255C74.15 363.255 74.15 363.255 74.15 363.255C74.5771 363.969 75.2108 364.597 76.0059 365.079C76.801 365.562 77.7304 365.883 78.7161 366.009L78.7164 366.009C79.7045 366.137 80.7147 366.063 81.6581 365.794C82.6016 365.526 83.4441 365.074 84.1159 364.483L84.1171 364.482L134.84 320.147C134.841 320.146 134.841 320.146 134.842 320.145C135.253 319.777 135.747 319.488 136.289 319.292C136.831 319.095 137.413 318.995 138 318.995M194.271 266.585L138.003 319.495M194.271 266.585C195.411 266.79 196.448 267.256 197.267 267.92C198.086 268.584 198.65 269.414 198.91 270.31C199.17 271.204 199.122 272.139 198.768 273.014C198.413 273.891 197.762 274.682 196.873 275.287L197.154 275.7M194.271 266.585L194.403 266.1C195.602 266.324 196.703 266.819 197.582 267.532C198.472 268.253 199.099 269.167 199.391 270.17C199.682 271.173 199.627 272.224 199.232 273.202C198.836 274.18 198.116 275.046 197.154 275.7M138 318.995C138.001 318.995 138.002 318.995 138.003 318.995L138.003 319.495M138 318.995C137.999 318.995 137.998 318.995 137.997 318.995L138.003 319.495M138 318.995C138.795 318.986 139.582 319.156 140.279 319.492C140.975 319.828 141.562 320.32 141.965 320.927L141.967 320.931L152.358 336.862L152.363 336.87C152.961 337.829 153.942 338.612 155.164 339.076C156.387 339.54 157.767 339.654 159.081 339.394L159.087 339.393L159.139 339.384L159.143 339.383C160.473 339.149 161.655 338.554 162.506 337.709C163.355 336.865 163.822 335.826 163.859 334.761L163.859 334.75L163.859 334.75L165.941 297.976M138.003 319.495C138.725 319.487 139.437 319.641 140.061 319.942C140.686 320.243 141.2 320.679 141.548 321.204L151.939 337.135C152.602 338.197 153.675 339.045 154.987 339.543C156.299 340.042 157.774 340.162 159.177 339.885L159.229 339.875C160.65 339.626 161.928 338.988 162.858 338.063C163.789 337.139 164.317 335.982 164.359 334.779L166.44 298.003C166.465 297.544 166.603 297.095 166.846 296.682C167.107 296.273 167.461 295.911 167.889 295.614L197.154 275.7M165.941 297.976L166.439 298.003L165.941 297.975L165.941 297.976ZM165.941 297.976C165.97 297.434 166.133 296.907 166.415 296.428L166.42 296.42L166.425 296.413C166.724 295.944 167.126 295.535 167.604 295.203L167.608 295.201L196.873 275.287L197.154 275.7M166.496 294.337L166.499 294.335L195.764 274.421L195.483 274.008L195.765 274.42C196.414 273.977 196.914 273.381 197.19 272.692C197.468 272.001 197.506 271.255 197.298 270.545C197.09 269.836 196.65 269.204 196.044 268.714C195.439 268.224 194.689 267.893 193.882 267.748L193.882 267.748L9.99499 234.867L9.99484 234.867L7.5477 234.429L7.54616 234.429C6.74086 234.287 5.90366 234.335 5.12741 234.57C4.3513 234.804 3.65841 235.218 3.13394 235.774C2.60858 236.331 2.27252 237.011 2.18002 237.739C2.0874 238.468 2.24498 239.199 2.62511 239.846L2.6251 239.846L2.62629 239.848L75.6598 362.794L75.6603 362.794C75.9893 363.346 76.4679 363.813 77.0474 364.164C77.6268 364.515 78.2938 364.741 78.9912 364.829C79.6887 364.916 80.402 364.863 81.0719 364.673C81.7417 364.483 82.3541 364.159 82.854 363.723L82.8544 363.722L133.581 319.384L133.585 319.38C134.039 318.975 134.577 318.634 135.177 318.375L136.066 317.992L135.239 317.489L7.70787 239.832L7.70789 239.832L7.70391 239.829C7.29383 239.585 7.02221 239.243 6.908 238.879C6.795 238.519 6.83498 238.137 7.03089 237.79C7.22908 237.44 7.58164 237.137 8.04762 236.955C8.5135 236.773 9.04716 236.73 9.55175 236.838L9.55174 236.838L9.55705 236.839C9.6767 236.863 9.79235 236.897 9.90238 236.939L9.90238 236.94L9.90635 236.941L165.012 295.252L165.322 295.369L165.55 295.129C165.827 294.838 166.144 294.572 166.496 294.337Z" fill="#219EBC" stroke="black"/>
<path d="M205.953 648.127C199.662 654.76 196.512 663.07 197.095 671.493C197.673 679.899 201.288 687.967 207.471 694.647L206.312 648.476M205.953 648.127L206.31 648.478C206.311 648.477 206.312 648.476 206.312 648.476M205.953 648.127C214.489 639.44 226.369 634.987 237.613 632.489C251.08 629.498 264.886 629.282 278.561 630.213C287.833 630.844 297.065 631.96 306.298 633.076C312.12 633.78 317.942 634.484 323.774 635.067C338.403 636.523 353.054 637.496 367.729 637.986C396.772 638.952 425.862 638.053 454.738 635.297L205.953 648.127ZM206.312 648.476C200.111 655.015 197.021 663.189 197.594 671.458L197.594 671.459C198.163 679.742 201.726 687.704 207.838 694.307L207.839 694.308C214.043 701.048 222.774 705.912 232.681 708.127L232.572 708.615L232.681 708.127C233.119 708.225 233.472 708.118 233.748 707.903C234.036 707.678 234.256 707.322 234.358 706.92C234.461 706.518 234.435 706.114 234.291 705.802C234.154 705.507 233.9 705.265 233.461 705.167C233.447 705.164 233.432 705.161 233.418 705.158C225.09 703.284 215.874 698.477 209.266 691.467C202.638 684.437 198.609 675.158 200.798 664.401C202.975 653.708 211.322 646.83 219.859 642.419C231.685 636.309 245.131 634.016 258.05 633.437C272.955 632.769 287.834 634.454 302.577 636.229C317.132 637.982 331.68 639.55 346.29 640.507C403.468 644.225 460.995 640.684 516.882 630.007C530.676 627.369 544.386 624.273 558.014 620.721L558.021 620.719C570.925 617.57 583.541 613.662 595.772 609.023C603.871 605.799 614.452 601.07 622.737 594.271C631.019 587.474 636.941 578.668 635.887 567.269C634.766 555.147 626.142 545.411 617.341 538.577C606.714 530.324 594.409 524.888 582.292 519.584C544.592 503.08 506.843 486.707 469.094 470.334C450.448 462.247 431.802 454.16 413.162 446.057C411.523 445.345 409.883 444.634 408.242 443.924C396.714 438.934 385.153 433.929 373.957 428.052C361.986 421.768 350.029 414.448 340.351 404.31C331.911 395.468 324.296 383.526 324.565 370.12C324.788 358.98 330.902 349.564 338.323 342.564C356.677 325.251 382.606 318.258 405.945 314.601C420.452 312.328 435.062 311.197 449.651 310.088L450.407 310.031C464.75 308.94 479.073 307.852 493.296 305.701C516.674 302.166 541.572 295.351 560.502 279.43L560.509 279.424C568.488 272.971 574.12 264.808 576.785 255.864C579.181 246.506 578.016 236.761 573.442 227.968L573.439 227.962C568.33 217.846 560.17 209.767 551.551 203.131C541.655 195.617 530.428 189.398 518.259 184.694L518.256 184.692C501.319 178.002 483.832 173.435 466.316 168.86C457.267 166.496 448.209 164.131 439.216 161.469C426.298 157.646 413.207 153.442 401.163 146.849C390.989 141.28 379.801 133.721 374.076 122.428C371.111 116.58 370.64 111.284 371.889 106.551C373.136 101.83 376.08 97.7201 379.859 94.2031C387.407 87.1774 398.386 82.4241 406.293 79.8198L406.299 79.8177C417.037 76.4416 428.097 73.817 439.362 71.9713C439.799 71.8927 440.044 71.6686 440.176 71.3947C440.317 71.1009 440.345 70.7073 440.242 70.3031C440.03 69.4722 439.37 68.8722 438.536 69.0206L438.529 69.022L438.529 69.0219C426.72 70.9303 415.148 73.7313 403.957 77.3897C394.468 80.6579 384.749 84.9315 377.364 92.2538L377.363 92.2553C374.013 95.5489 371.543 99.3832 370.106 103.507C368.669 107.629 368.294 111.952 369.004 116.199C370.948 127.038 379.409 135.443 387.466 141.589C398.085 149.689 410.204 154.988 422.529 159.317C435.509 163.877 448.769 167.432 462.043 170.923C464.695 171.621 467.361 172.311 470.034 173.004C494.063 179.227 518.74 185.618 540.357 199.021C548.756 204.229 558.687 211.731 565.824 220.98C572.964 230.234 577.341 241.286 574.51 253.55C572 264.425 564.388 272.891 556.238 279.086L556.232 279.091C546.669 286.146 535.645 291.702 523.697 295.491C499.621 303.522 474.452 305.319 449.379 307.108C446.75 307.296 444.122 307.483 441.497 307.678C413.805 309.731 386.367 312.574 360.614 324.552C351.855 328.626 342.183 334.359 334.686 341.97C327.194 349.576 321.894 359.032 321.809 370.575C321.721 382.576 327.527 393.621 334.76 402.391C343.413 412.884 354.631 420.658 366.083 427.173C378.148 433.785 390.677 439.797 403.602 445.18L403.61 445.183C417.749 451.339 431.891 457.487 446.037 463.627L446.037 463.627L531.88 500.945L574.532 519.486C575.781 520.029 577.034 520.57 578.289 521.112C590.093 526.21 602.081 531.388 612.825 538.929C617.696 542.347 623.028 546.873 627.022 552.305C631.017 557.738 633.694 564.107 633.189 571.19C632.385 582.447 623.378 590.506 615.304 595.826C604.811 602.739 593.038 607.202 581.362 610.901C567.893 615.168 554.207 618.707 540.5 621.888L540.387 621.401L540.5 621.888C512.416 628.394 483.755 633.045 454.785 635.795C425.888 638.553 396.777 639.453 367.712 638.485C353.027 637.996 338.364 637.022 323.724 635.564C317.869 634.98 312.039 634.275 306.214 633.57C296.995 632.455 287.791 631.342 278.527 630.711C264.878 629.782 251.124 630 237.722 632.977C226.516 635.467 214.749 639.89 206.312 648.476Z" fill="#E6E6E6" stroke="black"/>
<path d="M652.158 567.562C652.158 580.024 639.935 590.278 624.652 590.278C609.369 590.278 597.146 580.024 597.146 567.562C597.146 555.101 609.369 544.847 624.652 544.847C639.935 544.847 652.158 555.101 652.158 567.562Z" fill="#E6E6E6" stroke="black"/>
<path d="M601.064 240.347C601.064 252.809 588.841 263.063 573.558 263.063C558.275 263.063 546.052 252.809 546.052 240.347C546.052 227.885 558.275 217.632 573.558 217.632C588.841 217.632 601.064 227.885 601.064 240.347Z" fill="#E6E6E6" stroke="black"/>
<path d="M513.29 6.63936L513.289 6.63995L435.525 34.6633C435.525 34.6634 435.525 34.6634 435.525 34.6634C435.12 34.8091 434.733 34.9891 434.37 35.2009L433.274 35.8398L434.511 36.1204L488.51 48.37L488.853 48.4477L489.042 48.1517L515.333 7.03272L515.91 6.13028L514.848 6.26749C514.313 6.33657 513.79 6.46134 513.29 6.63936ZM464.84 90.858L464.84 90.8578L542.604 62.8344L542.435 62.364L542.605 62.8342C544.181 62.2642 545.451 61.1883 546.104 59.8137C546.76 58.4326 546.728 56.8858 546.018 55.5261L546.017 55.5256L522.203 10.115L521.803 9.3522L521.339 10.0779L493.821 53.1166C493.458 53.6842 492.86 54.1506 492.108 54.42C491.357 54.6893 490.513 54.7394 489.719 54.5594L432.882 41.6658L431.826 41.4261L432.329 42.3856L456.259 88.0168L456.259 88.0174C456.97 89.369 458.283 90.4051 459.882 90.9273C461.481 91.4496 463.262 91.425 464.84 90.858ZM432.645 29.4647L510.408 1.4416C513.741 0.244248 517.515 0.191397 520.896 1.2956C524.277 2.39981 526.962 4.56115 528.391 7.27647L432.645 29.4647ZM528.391 7.27703L552.538 53.3206L528.391 7.27703ZM425.418 35.6605C426.727 32.9069 429.315 30.6685 432.644 29.4649L425.591 44.1766C424.174 41.4652 424.113 38.4074 425.418 35.6605ZM449.738 90.2207L425.592 44.1772L552.538 53.3211C553.955 56.0325 554.016 59.0904 552.711 61.8373C551.402 64.591 548.814 66.8295 545.484 68.0331L467.721 96.0562C464.389 97.2536 460.614 97.3064 457.233 96.2022C453.852 95.0979 451.167 92.9363 449.738 90.2207Z" fill="#E6E6E6" stroke="black"/>
<path d="M493.324 341.674C493.324 373.731 461.939 399.87 423.017 399.87C384.095 399.87 352.709 373.731 352.709 341.674C352.709 309.617 384.095 283.478 423.017 283.478C461.939 283.478 493.324 309.617 493.324 341.674Z" fill="#219EBC" stroke="black"/>
<path d="M392.333 706.765H411.86C414.034 706.763 416.105 706.045 417.619 704.79C419.131 703.537 419.957 701.86 419.96 700.136C419.96 700.136 419.96 700.136 419.96 700.136M392.333 706.765L420.46 700.136L419.96 700.136M392.333 706.765C390.158 706.763 388.088 706.045 386.574 704.79C385.062 703.537 384.235 701.86 384.233 700.136V565.224C384.235 563.5 385.062 561.823 386.574 560.57C388.088 559.314 390.158 558.597 392.333 558.594H411.86C414.035 558.597 416.105 559.314 417.619 560.57C419.131 561.823 419.957 563.499 419.96 565.223M392.333 706.765L419.96 565.223M419.96 700.136V565.224M419.96 700.136V565.224M419.96 565.224L419.96 565.223M419.96 565.224L419.96 565.223" fill="#2F2E41" stroke="black"/>
<path d="M450.482 706.765H430.956C428.781 706.763 426.711 706.045 425.196 704.79C423.685 703.537 422.858 701.86 422.855 700.136V565.224C422.858 563.5 423.685 561.823 425.196 560.57C426.711 559.314 428.781 558.597 430.955 558.594H450.483C452.657 558.597 454.727 559.314 456.242 560.57C457.753 561.823 458.58 563.5 458.582 565.224V700.136C458.58 701.86 457.753 703.537 456.242 704.79C454.727 706.045 452.657 706.763 450.482 706.765Z" fill="#2F2E41" stroke="black"/>
<path d="M528.995 550.315L528.994 550.315C527.967 550.056 527.017 549.632 526.197 549.071C525.378 548.51 524.707 547.824 524.219 547.057L524.218 547.055L447.926 427.883L447.926 427.883C447.435 427.117 447.135 426.284 447.037 425.432C446.938 424.579 447.043 423.718 447.348 422.895C447.652 422.072 448.152 421.3 448.823 420.625C449.495 419.951 450.326 419.388 451.271 418.972L451.271 418.972L468.519 411.384L468.519 411.384C469.464 410.968 470.501 410.709 471.571 410.625C472.642 410.54 473.721 410.631 474.747 410.891C475.773 411.152 476.723 411.577 477.543 412.138C478.362 412.699 479.034 413.384 479.525 414.151L479.525 414.151L555.816 533.323L555.816 533.323C556.307 534.089 556.607 534.922 556.706 535.775C556.804 536.627 556.699 537.489 556.395 538.312C556.09 539.135 555.591 539.907 554.919 540.581C554.247 541.256 553.416 541.819 552.471 542.234L552.471 542.234L535.223 549.822L535.222 549.823C534.05 550.341 532.739 550.615 531.403 550.616C530.586 550.615 529.775 550.513 528.995 550.315Z" fill="#219EBC" stroke="black"/>
<path d="M369.638 440.312L369.711 440.335C370.627 440.622 371.6 440.77 372.583 440.77C374.251 440.77 375.874 440.349 377.235 439.571C378.597 438.793 379.625 437.701 380.199 436.45L387.099 421.308C387.832 419.683 387.761 417.889 386.896 416.304C386.028 414.712 384.42 413.444 382.395 412.805L230.148 365.137L369.638 440.312ZM369.638 440.312H369.637M369.638 440.312H369.637M369.637 440.312L217.459 392.656C216.456 392.342 215.543 391.869 214.771 391.267C213.998 390.665 213.383 389.948 212.954 389.159C212.525 388.371 212.291 387.525 212.26 386.67C212.228 385.815 212.4 384.96 212.769 384.154L212.769 384.153L219.656 369.012C219.656 369.011 219.657 369.011 219.657 369.011C220.407 367.382 221.919 366.038 223.893 365.301C225.867 364.564 228.119 364.504 230.148 365.137L369.637 440.312Z" fill="#219EBC" stroke="black"/>
<path d="M377.849 411.068H466.575C470.775 411.068 474.013 413.874 474.013 417.148V573.406C474.013 576.681 470.775 579.487 466.575 579.487H377.849C373.649 579.487 370.411 576.681 370.411 573.406V417.148C370.411 413.874 373.649 411.068 377.849 411.068Z" fill="#2F2E41" stroke="black"/>
<path d="M470.518 316.836L470.527 316.833L470.536 316.829C474.53 315.337 477.716 312.632 479.425 309.238C481.735 305.055 481.851 300.614 480.877 296.291C479.905 291.975 477.841 287.745 475.756 283.953C475.572 283.619 475.59 283.326 475.712 283.071C475.842 282.799 476.109 282.543 476.459 282.373C476.807 282.204 477.193 282.141 477.524 282.203C477.841 282.262 478.12 282.434 478.307 282.774C483.387 292.015 487.485 302.713 481.031 311.925L481.031 311.925L481.025 311.933C478.825 315.203 475.304 317.753 471.054 319.125C466.155 320.62 460.803 319.903 456.092 318.14C451.106 316.275 447.128 313.368 443.271 310.248C442.522 309.642 441.777 309.027 441.029 308.41C437.942 305.864 434.816 303.286 431.232 301.167C427.011 298.498 421.818 297.126 416.532 297.271L416.527 297.271C413.644 297.381 410.819 297.822 408.025 298.27C407.902 298.29 407.778 298.31 407.655 298.33C404.979 298.761 402.331 299.187 399.642 299.344C389.086 299.96 380.326 294.635 376.094 286.849L375.682 287.074L376.094 286.849C375.913 286.516 375.931 286.221 376.054 285.966C376.186 285.692 376.454 285.436 376.804 285.266C377.152 285.096 377.537 285.034 377.866 285.096C378.18 285.154 378.455 285.324 378.639 285.66C380.695 289.73 384.283 293.117 388.841 295.326L388.841 295.326L388.852 295.331C394.084 297.707 399.895 297.234 405.397 296.385C406.029 296.287 406.661 296.186 407.293 296.085C411.852 295.358 416.39 294.635 420.957 295.127C425.471 295.702 429.726 297.224 433.318 299.543L433.318 299.543L433.327 299.549C436.576 301.547 439.452 303.916 442.356 306.308C443.013 306.85 443.672 307.393 444.337 307.933C447.926 310.847 451.672 313.659 456.24 315.63C460.584 317.504 465.747 318.413 470.518 316.836Z" fill="#2F2E41" stroke="black"/>
<path d="M424.391 345.782L420.904 324.667L422.532 324.482L426.511 348.588L425.135 348.065C425.135 348.065 425.135 348.065 425.135 348.065C423.827 347.568 422.267 347.189 420.743 347.132C419.224 347.076 417.688 347.339 416.483 348.183L416.477 348.187L416.471 348.192C415.88 348.632 415.411 349.186 415.109 349.816C414.807 350.444 414.682 351.126 414.747 351.808C414.818 352.86 415.16 353.881 415.745 354.803C416.331 355.726 417.145 356.527 418.125 357.155L418.125 357.155L418.136 357.161C421.415 359.147 425.703 359.447 430.403 359.567L430.362 360.761C426.062 360.657 421.004 360.444 417.097 358.08C415.907 357.329 414.938 356.377 414.25 355.295C413.562 354.213 413.172 353.025 413.099 351.816L413.099 351.816L413.099 351.804C413.03 350.975 413.194 350.141 413.581 349.366C413.969 348.59 414.572 347.89 415.352 347.325C417.384 345.902 420.418 345.53 423.779 346.349L424.514 346.529L424.391 345.782Z" fill="#2F2E41" stroke="black"/>
<path d="M393.61 326.595H406.861V327.789H393.61V326.595Z" fill="#2F2E41" stroke="black"/>
<path d="M438.593 326.595H451.844V327.789H438.593V326.595Z" fill="#2F2E41" stroke="black"/>
<path d="M382.145 413.313L382.129 413.307L320.068 388.853L320.25 388.39L320.068 388.853C319.068 388.459 317.973 388.253 316.86 388.251C315.748 388.248 314.651 388.451 313.649 388.841C312.647 389.231 311.769 389.798 311.076 390.495C310.382 391.191 309.89 392 309.627 392.859L302.323 416.717L301.845 416.571L302.323 416.717C301.867 418.205 302.116 419.785 303.036 421.139C303.96 422.498 305.497 423.532 307.346 423.999L369.917 439.815L369.794 440.3L369.943 439.823C371.809 440.405 373.881 440.35 375.696 439.67C377.511 438.991 378.896 437.754 379.58 436.258L382.145 413.313ZM382.145 413.313L382.162 413.318M382.145 413.313L382.162 413.318M382.162 413.318C384.024 413.904 385.501 415.069 386.297 416.528M382.162 413.318L386.297 416.528M386.297 416.528C387.09 417.981 387.154 419.624 386.481 421.112L386.297 416.528ZM386.481 421.114L379.58 436.258L386.481 421.114Z" fill="#2F2E41" stroke="black"/>
<path d="M479.484 413.31L479.496 413.328L479.51 413.345L516.616 461.288C517.201 462.044 517.572 462.89 517.709 463.766C517.846 464.642 517.747 465.533 517.418 466.377C517.089 467.222 516.534 468.005 515.786 468.665C515.038 469.326 514.116 469.846 513.085 470.182L485.457 479.204C483.661 479.791 481.658 479.782 479.871 479.179C478.083 478.576 476.671 477.434 475.903 476.018L449.068 426.565L448.629 426.803L449.05 426.534C448.146 425.118 447.961 423.477 448.522 421.959C449.086 420.435 450.369 419.129 452.124 418.355L469.375 410.766C469.376 410.766 469.376 410.766 469.376 410.766C471.132 409.998 473.191 409.836 475.097 410.321C477.003 410.806 478.573 411.891 479.484 413.31Z" fill="#2F2E41" stroke="black"/>
<path d="M194.271 266.585L10.3269 233.692L10.3267 233.692L7.93642 233.265L7.93564 233.265C6.79472 233.06 5.60706 233.126 4.5118 233.454C3.41639 233.783 2.46694 234.358 1.76631 235.102C1.06659 235.845 0.644324 236.725 0.531912 237.638C0.419609 238.551 0.618866 239.476 1.11675 240.31L1.11724 240.311L74.1499 363.255C74.15 363.255 74.15 363.255 74.15 363.255C74.5771 363.969 75.2108 364.597 76.0059 365.079C76.801 365.562 77.7304 365.883 78.7161 366.009L78.7164 366.009C79.7045 366.137 80.7147 366.063 81.6581 365.794C82.6016 365.526 83.4441 365.074 84.1159 364.483L84.1171 364.482L134.84 320.147C134.841 320.146 134.841 320.146 134.842 320.145C135.253 319.777 135.747 319.488 136.289 319.292C136.831 319.095 137.413 318.995 138 318.995M194.271 266.585L138.003 319.495M194.271 266.585C195.411 266.79 196.448 267.256 197.267 267.92C198.086 268.584 198.65 269.414 198.91 270.31C199.17 271.204 199.122 272.139 198.768 273.014C198.413 273.891 197.762 274.682 196.873 275.287L197.154 275.7M194.271 266.585L194.403 266.1C195.602 266.324 196.703 266.819 197.582 267.532C198.472 268.253 199.099 269.167 199.391 270.17C199.682 271.173 199.627 272.224 199.232 273.202C198.836 274.18 198.116 275.046 197.154 275.7M138 318.995C138.001 318.995 138.002 318.995 138.003 318.995L138.003 319.495M138 318.995C137.999 318.995 137.998 318.995 137.997 318.995L138.003 319.495M138 318.995C138.795 318.986 139.582 319.156 140.279 319.492C140.975 319.828 141.562 320.32 141.965 320.927L141.967 320.931L152.358 336.862L152.363 336.87C152.961 337.829 153.942 338.612 155.164 339.076C156.387 339.54 157.767 339.654 159.081 339.394L159.087 339.393L159.139 339.384L159.143 339.383C160.473 339.149 161.655 338.554 162.506 337.709C163.355 336.865 163.822 335.826 163.859 334.761L163.859 334.75L163.859 334.75L165.941 297.976M138.003 319.495C138.725 319.487 139.437 319.641 140.061 319.942C140.686 320.243 141.2 320.679 141.548 321.204L151.939 337.135C152.602 338.197 153.675 339.045 154.987 339.543C156.299 340.042 157.774 340.162 159.177 339.885L159.229 339.875C160.65 339.626 161.928 338.988 162.858 338.063C163.789 337.139 164.317 335.982 164.359 334.779L166.44 298.003C166.465 297.544 166.603 297.095 166.846 296.682C167.107 296.273 167.461 295.911 167.889 295.614L197.154 275.7M165.941 297.976L166.439 298.003L165.941 297.975L165.941 297.976ZM165.941 297.976C165.97 297.434 166.133 296.907 166.415 296.428L166.42 296.42L166.425 296.413C166.724 295.944 167.126 295.535 167.604 295.203L167.608 295.201L196.873 275.287L197.154 275.7M166.499 294.335L166.496 294.337C166.144 294.572 165.827 294.838 165.55 295.129L165.548 295.131C165.3 295.389 165.087 295.666 164.912 295.957L164.91 295.961C164.752 296.218 164.623 296.486 164.526 296.759L164.528 296.767L164.482 296.907C164.375 297.241 164.313 297.582 164.298 297.926L164.297 297.932L162.217 334.7C162.194 335.561 161.819 336.373 161.18 337.009C160.542 337.644 159.676 338.068 158.731 338.229C158.73 338.229 158.729 338.229 158.728 338.229L158.719 338.231C158.717 338.231 158.715 338.231 158.714 338.232C157.782 338.422 156.8 338.348 155.921 338.017C155.043 337.687 154.305 337.113 153.843 336.37C153.842 336.369 153.841 336.367 153.84 336.365L143.453 320.433L166.499 294.335ZM166.499 294.335L195.764 274.421L195.483 274.008M166.499 294.335L195.483 274.008M195.483 274.008L195.765 274.42C196.414 273.977 196.914 273.381 197.19 272.692C197.468 272.001 197.506 271.255 197.298 270.545C197.09 269.836 196.65 269.204 196.044 268.714C195.439 268.224 194.689 267.893 193.882 267.748L193.882 267.748L9.99499 234.867L9.99484 234.867L7.5477 234.429L7.54616 234.429C6.74086 234.287 5.90366 234.335 5.12741 234.57C4.3513 234.804 3.65841 235.218 3.13394 235.774C2.60858 236.331 2.27252 237.011 2.18002 237.739C2.0874 238.468 2.24498 239.199 2.62511 239.846L2.6251 239.846L2.62629 239.848L75.6598 362.794L75.6603 362.794C75.9893 363.346 76.468 363.813 77.0474 364.164C77.6268 364.515 78.2938 364.741 78.9912 364.829C79.6887 364.916 80.402 364.863 81.0719 364.673C81.7418 364.483 82.3541 364.159 82.854 363.723L82.8544 363.722L133.581 319.384L133.585 319.38C134.039 318.975 134.577 318.634 135.177 318.375L135.18 318.374C136.041 317.996 137.004 317.797 137.986 317.797H137.993L138.001 317.797C138.127 317.793 138.259 317.798 138.414 317.804L138.415 317.804L138.47 317.806M195.483 274.008L138.47 317.806M138.47 317.806L138.48 317.804M138.47 317.806L138.48 317.804M138.48 317.804C139.513 317.862 140.508 318.133 141.374 318.589C142.255 319.053 142.968 319.691 143.452 320.433L138.48 317.804Z" fill="#3F3D56" stroke="black"/>
<path d="M8.76096 238.915L138.02 317.637L137.132 318.643L135.24 317.489L135.24 317.489L7.70805 239.832L7.70806 239.832L7.70408 239.829C7.29399 239.585 7.02238 239.243 6.90818 238.879C6.79517 238.519 6.83516 238.137 7.03106 237.79C7.22926 237.439 7.58182 237.137 8.0478 236.955C8.51367 236.773 9.04734 236.73 9.55192 236.838L9.55192 236.838L9.55723 236.839C9.6768 236.863 9.79246 236.897 9.90256 236.939L9.90255 236.94L9.90653 236.941L165.012 295.252L165.014 295.253L165.059 295.27L164.45 296.383L164.422 296.373L164.42 296.365L164.18 296.275L9.19697 238.02L8.76096 238.915Z" fill="#3F3D56" stroke="black"/>
</svg>
