<svg width="277" height="167" viewBox="0 0 277 167" fill="none" xmlns="http://www.w3.org/2000/svg">
<rect width="277" height="167" rx="10" fill="#F2F6FC"/>
<path d="M98.2188 42.1091C98.6598 40.4801 99.7441 39.0256 101.294 37.9839C102.844 36.9422 104.768 36.3749 106.75 36.375H159.25C161.232 36.3749 163.156 36.9422 164.706 37.9839C166.256 39.0256 167.34 40.4801 167.781 42.1091L133 60.0266L98.2188 42.1091ZM98 46.3202V72.5162L123.388 59.3961L98 46.3202ZM127.579 61.5606L98.8356 76.4065C99.5452 77.6694 100.666 78.7363 102.067 79.4832C103.468 80.23 105.092 80.626 106.75 80.625H134.12C133.376 78.8483 132.997 76.9778 133 75.0937C132.997 72.6714 133.625 70.278 134.839 68.0824C136.053 65.8869 137.824 63.9425 140.026 62.3866L138.421 61.5569L133 64.3484L127.579 61.5569V61.5606ZM168 46.3202V64.6618C166.156 62.7356 163.824 61.1822 161.174 60.1159C158.524 59.0495 155.624 58.4974 152.688 58.5C149.71 58.4968 146.77 59.0642 144.091 60.1594L142.612 59.3961L168 46.3202Z" fill="#023047"/>
<path d="M168 75.0938C168 78.5167 166.387 81.7995 163.515 84.2198C160.643 86.6402 156.749 88 152.688 88C148.626 88 144.732 86.6402 141.86 84.2198C138.988 81.7995 137.375 78.5167 137.375 75.0938C137.375 71.6708 138.988 68.388 141.86 65.9677C144.732 63.5473 148.626 62.1875 152.688 62.1875C156.749 62.1875 160.643 63.5473 163.515 65.9677C166.387 68.388 168 71.6708 168 75.0938ZM159.281 68.9024C159.034 68.7779 158.761 68.6956 158.477 68.6601C158.193 68.6246 157.903 68.6366 157.624 68.6955C157.345 68.7544 157.083 68.859 156.852 69.0034C156.622 69.1477 156.427 69.3289 156.279 69.5367L151.161 76.7273L148.767 74.7102C148.357 74.364 147.8 74.1695 147.219 74.1695C146.638 74.1695 146.081 74.364 145.67 74.7102C145.259 75.0565 145.028 75.526 145.028 76.0156C145.028 76.5052 145.259 76.9748 145.67 77.321L149.056 80.1714C149.409 80.4691 149.837 80.6951 150.309 80.8322C150.78 80.9693 151.283 81.014 151.778 80.9628C152.273 80.9116 152.748 80.7659 153.167 80.5367C153.585 80.3076 153.936 80.0011 154.192 79.6404L160.033 71.4321C160.181 71.2243 160.279 70.9941 160.321 70.7545C160.363 70.515 160.348 70.2708 160.279 70.0359C160.209 69.8009 160.085 69.5799 159.913 69.3855C159.742 69.191 159.527 69.0269 159.281 68.9024Z" fill="#31C178"/>
<path d="M57.1562 119.887C57.4713 118.783 58.2458 117.797 59.3529 117.091C60.46 116.385 61.834 116 63.25 116H100.75C102.166 116 103.54 116.385 104.647 117.091C105.754 117.797 106.529 118.783 106.844 119.887L82 132.035L57.1562 119.887ZM57 122.742V140.502L75.1344 131.607L57 122.742ZM78.1281 133.075L57.5969 143.14C58.1037 143.996 58.9041 144.72 59.905 145.226C60.9058 145.732 62.0658 146.001 63.25 146H82.8C82.2688 144.795 81.9982 143.527 82 142.25C81.9979 140.608 82.4462 138.985 83.3133 137.497C84.1805 136.008 85.4454 134.69 87.0187 133.635L85.8719 133.073L82 134.965L78.1281 133.073V133.075ZM107 122.742V135.177C105.683 133.872 104.017 132.818 102.124 132.096C100.231 131.373 98.1599 130.998 96.0625 131C93.9355 130.998 91.8357 131.383 89.9219 132.125L88.8656 131.607L107 122.742Z" fill="#023047"/>
<path d="M107 142.25C107 144.571 105.848 146.796 103.796 148.437C101.745 150.078 98.9633 151 96.0625 151C93.1617 151 90.3797 150.078 88.3285 148.437C86.2773 146.796 85.125 144.571 85.125 142.25C85.125 139.929 86.2773 137.704 88.3285 136.063C90.3797 134.422 93.1617 133.5 96.0625 133.5C98.9633 133.5 101.745 134.422 103.796 136.063C105.848 137.704 107 139.929 107 142.25ZM100.772 138.053C100.596 137.968 100.401 137.912 100.198 137.888C99.9947 137.864 99.7877 137.872 99.5887 137.912C99.3896 137.952 99.2023 138.023 99.0375 138.121C98.8727 138.219 98.7336 138.342 98.6281 138.483L94.9719 143.358L93.2625 141.99C92.9691 141.755 92.5712 141.623 92.1562 141.623C91.7413 141.623 91.3434 141.755 91.05 141.99C90.7566 142.225 90.5918 142.543 90.5918 142.875C90.5918 143.207 90.7566 143.525 91.05 143.76L93.4688 145.692C93.7205 145.894 94.0265 146.048 94.3634 146.14C94.7003 146.233 95.0592 146.264 95.413 146.229C95.7667 146.194 96.1059 146.096 96.4047 145.94C96.7036 145.785 96.9542 145.577 97.1375 145.332L101.309 139.767C101.415 139.627 101.485 139.471 101.515 139.308C101.545 139.146 101.535 138.98 101.485 138.821C101.435 138.662 101.346 138.512 101.224 138.38C101.102 138.248 100.948 138.137 100.772 138.053Z" fill="#31C178"/>
<path d="M183.156 96.8875C183.471 95.7831 184.246 94.797 185.353 94.0908C186.46 93.3845 187.834 92.9999 189.25 93H226.75C228.166 92.9999 229.54 93.3845 230.647 94.0908C231.754 94.797 232.529 95.7831 232.844 96.8875L208 109.035L183.156 96.8875ZM183 99.7425V117.502L201.134 108.607L183 99.7425ZM204.128 110.075L183.597 120.14C184.104 120.996 184.904 121.72 185.905 122.226C186.906 122.732 188.066 123.001 189.25 123H208.8C208.269 121.795 207.998 120.527 208 119.25C207.998 117.608 208.446 115.985 209.313 114.497C210.181 113.008 211.445 111.69 213.019 110.635L211.872 110.073L208 111.965L204.128 110.073V110.075ZM233 99.7425V112.177C231.683 110.872 230.017 109.818 228.124 109.096C226.231 108.373 224.16 107.998 222.062 108C219.935 107.998 217.836 108.383 215.922 109.125L214.866 108.607L233 99.7425Z" fill="#023047"/>
<path d="M233 119.25C233 121.571 231.848 123.796 229.796 125.437C227.745 127.078 224.963 128 222.062 128C219.162 128 216.38 127.078 214.329 125.437C212.277 123.796 211.125 121.571 211.125 119.25C211.125 116.929 212.277 114.704 214.329 113.063C216.38 111.422 219.162 110.5 222.062 110.5C224.963 110.5 227.745 111.422 229.796 113.063C231.848 114.704 233 116.929 233 119.25ZM226.772 115.053C226.596 114.968 226.401 114.912 226.198 114.888C225.995 114.864 225.788 114.872 225.589 114.912C225.39 114.952 225.202 115.023 225.037 115.121C224.873 115.219 224.734 115.342 224.628 115.483L220.972 120.358L219.263 118.99C218.969 118.755 218.571 118.623 218.156 118.623C217.741 118.623 217.343 118.755 217.05 118.99C216.757 119.225 216.592 119.543 216.592 119.875C216.592 120.207 216.757 120.525 217.05 120.76L219.469 122.692C219.721 122.894 220.026 123.048 220.363 123.14C220.7 123.233 221.059 123.264 221.413 123.229C221.767 123.194 222.106 123.096 222.405 122.94C222.704 122.785 222.954 122.577 223.137 122.332L227.309 116.767C227.415 116.627 227.485 116.471 227.515 116.308C227.545 116.146 227.535 115.98 227.485 115.821C227.435 115.662 227.346 115.512 227.224 115.38C227.102 115.248 226.948 115.137 226.772 115.053Z" fill="#31C178"/>
</svg>
